<svg width="479" height="80" viewBox="0 0 479 80" fill="none" xmlns="http://www.w3.org/2000/svg">
<path d="M39.168 25.104C42.8373 25.104 45.76 26.2987 47.936 28.688C50.1547 31.0773 51.264 34.2773 51.264 38.288V58H43.008V38.864C43.008 36.944 42.5387 35.4507 41.6 34.384C40.6613 33.3173 39.3387 32.784 37.632 32.784C35.7547 32.784 34.2827 33.4027 33.216 34.64C32.192 35.8773 31.68 37.6693 31.68 40.016V58H23.424V38.864C23.424 36.944 22.9547 35.4507 22.016 34.384C21.0773 33.3173 19.7547 32.784 18.048 32.784C16.2133 32.784 14.7413 33.4027 13.632 34.64C12.5653 35.8773 12.032 37.6693 12.032 40.016V58H3.776V26H12.032V29.392C13.952 26.5333 16.9173 25.104 20.928 25.104C24.8533 25.104 27.7547 26.64 29.632 29.712C31.7653 26.64 34.944 25.104 39.168 25.104ZM82.596 26H90.852V58H82.596V54.224C80.1213 57.3387 76.644 58.896 72.164 58.896C67.8973 58.896 64.228 57.2747 61.156 54.032C58.1267 50.7467 56.612 46.736 56.612 42C56.612 37.264 58.1267 33.2747 61.156 30.032C64.228 26.7467 67.8973 25.104 72.164 25.104C76.644 25.104 80.1213 26.6613 82.596 29.776V26ZM67.364 48.528C69.028 50.192 71.14 51.024 73.7 51.024C76.26 51.024 78.372 50.192 80.036 48.528C81.7427 46.8213 82.596 44.6453 82.596 42C82.596 39.3547 81.7427 37.2 80.036 35.536C78.372 33.8293 76.26 32.976 73.7 32.976C71.14 32.976 69.028 33.8293 67.364 35.536C65.7 37.2 64.868 39.3547 64.868 42C64.868 44.6453 65.7 46.8213 67.364 48.528ZM127.843 58H118.243L106.595 43.472V58H98.3385V13.2H106.595V40.08L117.603 26H127.458L114.595 41.808L127.843 58ZM136.627 45.392C137.736 49.4027 140.744 51.408 145.651 51.408C148.808 51.408 151.198 50.3413 152.819 48.208L159.475 52.048C156.318 56.6133 151.667 58.896 145.523 58.896C140.232 58.896 135.987 57.296 132.787 54.096C129.587 50.896 127.987 46.864 127.987 42C127.987 37.1787 129.566 33.168 132.723 29.968C135.88 26.7253 139.934 25.104 144.883 25.104C149.576 25.104 153.438 26.7253 156.467 29.968C159.539 33.2107 161.075 37.2213 161.075 42C161.075 43.0667 160.968 44.1973 160.755 45.392H136.627ZM136.499 38.992H152.819C152.35 36.816 151.368 35.1947 149.875 34.128C148.424 33.0613 146.76 32.528 144.883 32.528C142.664 32.528 140.83 33.104 139.379 34.256C137.928 35.3653 136.968 36.944 136.499 38.992Z" fill="#764AF1"/>
<path d="M305.008 58.896C300.187 58.896 296.155 57.2747 292.912 54.032C289.712 50.7893 288.112 46.7787 288.112 42C288.112 37.2213 289.712 33.2107 292.912 29.968C296.155 26.7253 300.187 25.104 305.008 25.104C308.123 25.104 310.96 25.8507 313.52 27.344C316.08 28.8373 318.021 30.8427 319.344 33.36L312.24 37.52C311.6 36.1973 310.619 35.152 309.296 34.384C308.016 33.616 306.565 33.232 304.944 33.232C302.469 33.232 300.421 34.064 298.8 35.728C297.179 37.3493 296.368 39.44 296.368 42C296.368 44.5173 297.179 46.608 298.8 48.272C300.421 49.8933 302.469 50.704 304.944 50.704C306.608 50.704 308.08 50.3413 309.36 49.616C310.683 48.848 311.664 47.8027 312.304 46.48L319.472 50.576C318.064 53.0933 316.08 55.12 313.52 56.656C310.96 58.1493 308.123 58.896 305.008 58.896ZM347.659 26H355.915V58H347.659V54.224C345.184 57.3387 341.707 58.896 337.227 58.896C332.96 58.896 329.291 57.2747 326.219 54.032C323.189 50.7467 321.674 46.736 321.674 42C321.674 37.264 323.189 33.2747 326.219 30.032C329.291 26.7467 332.96 25.104 337.227 25.104C341.707 25.104 345.184 26.6613 347.659 29.776V26ZM332.427 48.528C334.091 50.192 336.203 51.024 338.763 51.024C341.323 51.024 343.435 50.192 345.099 48.528C346.805 46.8213 347.659 44.6453 347.659 42C347.659 39.3547 346.805 37.2 345.099 35.536C343.435 33.8293 341.323 32.976 338.763 32.976C336.203 32.976 334.091 33.8293 332.427 35.536C330.763 37.2 329.931 39.3547 329.931 42C329.931 44.6453 330.763 46.8213 332.427 48.528ZM371.657 31.504C372.425 29.456 373.684 27.92 375.433 26.896C377.225 25.872 379.209 25.36 381.385 25.36V34.576C378.868 34.2773 376.606 34.7893 374.601 36.112C372.638 37.4347 371.657 39.632 371.657 42.704V58H363.401V26H371.657V31.504ZM392.002 45.392C393.111 49.4027 396.119 51.408 401.026 51.408C404.183 51.408 406.573 50.3413 408.194 48.208L414.85 52.048C411.693 56.6133 407.042 58.896 400.898 58.896C395.607 58.896 391.362 57.296 388.162 54.096C384.962 50.896 383.362 46.864 383.362 42C383.362 37.1787 384.941 33.168 388.098 29.968C391.255 26.7253 395.309 25.104 400.258 25.104C404.951 25.104 408.813 26.7253 411.842 29.968C414.914 33.2107 416.45 37.2213 416.45 42C416.45 43.0667 416.343 44.1973 416.13 45.392H392.002ZM391.874 38.992H408.194C407.725 36.816 406.743 35.1947 405.25 34.128C403.799 33.0613 402.135 32.528 400.258 32.528C398.039 32.528 396.205 33.104 394.754 34.256C393.303 35.3653 392.343 36.944 391.874 38.992ZM428.94 45.392C430.049 49.4027 433.057 51.408 437.964 51.408C441.121 51.408 443.51 50.3413 445.132 48.208L451.788 52.048C448.63 56.6133 443.98 58.896 437.836 58.896C432.545 58.896 428.3 57.296 425.1 54.096C421.9 50.896 420.299 46.864 420.299 42C420.299 37.1787 421.878 33.168 425.036 29.968C428.193 26.7253 432.246 25.104 437.196 25.104C441.889 25.104 445.75 26.7253 448.78 29.968C451.852 33.2107 453.388 37.2213 453.388 42C453.388 43.0667 453.281 44.1973 453.068 45.392H428.94ZM428.812 38.992H445.132C444.662 36.816 443.681 35.1947 442.188 34.128C440.737 33.0613 439.073 32.528 437.196 32.528C434.977 32.528 433.142 33.104 431.692 34.256C430.241 35.3653 429.281 36.944 428.812 38.992ZM467.407 31.504C468.175 29.456 469.434 27.92 471.183 26.896C472.975 25.872 474.959 25.36 477.135 25.36V34.576C474.618 34.2773 472.356 34.7893 470.351 36.112C468.388 37.4347 467.407 39.632 467.407 42.704V58H459.151V26H467.407V31.504Z" fill="#764AF1"/>
<rect x="174" width="100" height="80" rx="10" fill="#764AF1"/>
<path d="M219.168 25.104C222.837 25.104 225.76 26.2987 227.936 28.688C230.155 31.0773 231.264 34.2773 231.264 38.288V58H223.008V38.864C223.008 36.944 222.539 35.4507 221.6 34.384C220.661 33.3173 219.339 32.784 217.632 32.784C215.755 32.784 214.283 33.4027 213.216 34.64C212.192 35.8773 211.68 37.6693 211.68 40.016V58H203.424V38.864C203.424 36.944 202.955 35.4507 202.016 34.384C201.077 33.3173 199.755 32.784 198.048 32.784C196.213 32.784 194.741 33.4027 193.632 34.64C192.565 35.8773 192.032 37.6693 192.032 40.016V58H183.776V26H192.032V29.392C193.952 26.5333 196.917 25.104 200.928 25.104C204.853 25.104 207.755 26.64 209.632 29.712C211.765 26.64 214.944 25.104 219.168 25.104ZM258.453 26H267.285L255.637 58C253.973 62.608 251.754 65.936 248.981 67.984C246.25 70.0747 242.837 71.0133 238.741 70.8V63.12C240.959 63.1627 242.709 62.6933 243.989 61.712C245.311 60.7307 246.357 59.152 247.125 56.976L234.005 26H243.029L251.349 47.504L258.453 26Z" fill="#F5F5F5"/>
</svg>
