<svg width="216" height="36" viewBox="0 0 216 36" fill="none" xmlns="http://www.w3.org/2000/svg">
<path d="M17.6256 11.6469C19.2768 11.6469 20.592 12.1845 21.5712 13.2597C22.5696 14.3349 23.0688 15.7749 23.0688 17.5797V26.4501H19.3536V17.8389C19.3536 16.9749 19.1424 16.3029 18.72 15.8229C18.2976 15.3429 17.7024 15.1029 16.9344 15.1029C16.0896 15.1029 15.4272 15.3813 14.9472 15.9381C14.4864 16.4949 14.256 17.3013 14.256 18.3573V26.4501H10.5408V17.8389C10.5408 16.9749 10.3296 16.3029 9.9072 15.8229C9.4848 15.3429 8.8896 15.1029 8.1216 15.1029C7.296 15.1029 6.6336 15.3813 6.1344 15.9381C5.6544 16.4949 5.4144 17.3013 5.4144 18.3573V26.4501H1.6992V12.0501H5.4144V13.5765C6.2784 12.2901 7.6128 11.6469 9.4176 11.6469C11.184 11.6469 12.4896 12.3381 13.3344 13.7205C14.2944 12.3381 15.7248 11.6469 17.6256 11.6469ZM37.1682 12.0501H40.8834V26.4501H37.1682V24.7509C36.0546 26.1525 34.4898 26.8533 32.4738 26.8533C30.5538 26.8533 28.9026 26.1237 27.5202 24.6645C26.157 23.1861 25.4754 21.3813 25.4754 19.2501C25.4754 17.1189 26.157 15.3237 27.5202 13.8645C28.9026 12.3861 30.5538 11.6469 32.4738 11.6469C34.4898 11.6469 36.0546 12.3477 37.1682 13.7493V12.0501ZM30.3138 22.1877C31.0626 22.9365 32.013 23.3109 33.165 23.3109C34.317 23.3109 35.2674 22.9365 36.0162 22.1877C36.7842 21.4197 37.1682 20.4405 37.1682 19.2501C37.1682 18.0597 36.7842 17.0901 36.0162 16.3413C35.2674 15.5733 34.317 15.1893 33.165 15.1893C32.013 15.1893 31.0626 15.5733 30.3138 16.3413C29.565 17.0901 29.1906 18.0597 29.1906 19.2501C29.1906 20.4405 29.565 21.4197 30.3138 22.1877ZM57.5291 26.4501H53.2091L47.9675 19.9125V26.4501H44.2523V6.29007H47.9675V18.3861L52.9211 12.0501H57.3563L51.5675 19.1637L57.5291 26.4501ZM61.4822 20.7765C61.9814 22.5813 63.335 23.4837 65.543 23.4837C66.9638 23.4837 68.039 23.0037 68.7686 22.0437L71.7638 23.7717C70.343 25.8261 68.2502 26.8533 65.4854 26.8533C63.1046 26.8533 61.1942 26.1333 59.7542 24.6933C58.3142 23.2533 57.5942 21.4389 57.5942 19.2501C57.5942 17.0805 58.3046 15.2757 59.7254 13.8357C61.1462 12.3765 62.9702 11.6469 65.1974 11.6469C67.3094 11.6469 69.047 12.3765 70.4102 13.8357C71.7926 15.2949 72.4838 17.0997 72.4838 19.2501C72.4838 19.7301 72.4358 20.2389 72.3398 20.7765H61.4822ZM61.4246 17.8965H68.7686C68.5574 16.9173 68.1158 16.1877 67.4438 15.7077C66.791 15.2277 66.0422 14.9877 65.1974 14.9877C64.199 14.9877 63.3734 15.2469 62.7206 15.7653C62.0678 16.2645 61.6358 16.9749 61.4246 17.8965Z" fill="#764AF1"/>
<path d="M137.254 26.8533C135.084 26.8533 133.27 26.1237 131.81 24.6645C130.37 23.2053 129.65 21.4005 129.65 19.2501C129.65 17.0997 130.37 15.2949 131.81 13.8357C133.27 12.3765 135.084 11.6469 137.254 11.6469C138.655 11.6469 139.932 11.9829 141.084 12.6549C142.236 13.3269 143.11 14.2293 143.705 15.3621L140.508 17.2341C140.22 16.6389 139.778 16.1685 139.183 15.8229C138.607 15.4773 137.954 15.3045 137.225 15.3045C136.111 15.3045 135.19 15.6789 134.46 16.4277C133.73 17.1573 133.366 18.0981 133.366 19.2501C133.366 20.3829 133.73 21.3237 134.46 22.0725C135.19 22.8021 136.111 23.1669 137.225 23.1669C137.974 23.1669 138.636 23.0037 139.212 22.6773C139.807 22.3317 140.249 21.8613 140.537 21.2661L143.762 23.1093C143.129 24.2421 142.236 25.1541 141.084 25.8453C139.932 26.5173 138.655 26.8533 137.254 26.8533ZM156.446 12.0501H160.162V26.4501H156.446V24.7509C155.333 26.1525 153.768 26.8533 151.752 26.8533C149.832 26.8533 148.181 26.1237 146.798 24.6645C145.435 23.1861 144.754 21.3813 144.754 19.2501C144.754 17.1189 145.435 15.3237 146.798 13.8645C148.181 12.3861 149.832 11.6469 151.752 11.6469C153.768 11.6469 155.333 12.3477 156.446 13.7493V12.0501ZM149.592 22.1877C150.341 22.9365 151.291 23.3109 152.443 23.3109C153.595 23.3109 154.546 22.9365 155.294 22.1877C156.062 21.4197 156.446 20.4405 156.446 19.2501C156.446 18.0597 156.062 17.0901 155.294 16.3413C154.546 15.5733 153.595 15.1893 152.443 15.1893C151.291 15.1893 150.341 15.5733 149.592 16.3413C148.843 17.0901 148.469 18.0597 148.469 19.2501C148.469 20.4405 148.843 21.4197 149.592 22.1877ZM167.246 14.5269C167.591 13.6053 168.158 12.9141 168.945 12.4533C169.751 11.9925 170.644 11.7621 171.623 11.7621V15.9093C170.491 15.7749 169.473 16.0053 168.571 16.6005C167.687 17.1957 167.246 18.1845 167.246 19.5669V26.4501H163.531V12.0501H167.246V14.5269ZM176.401 20.7765C176.9 22.5813 178.254 23.4837 180.462 23.4837C181.883 23.4837 182.958 23.0037 183.687 22.0437L186.683 23.7717C185.262 25.8261 183.169 26.8533 180.404 26.8533C178.023 26.8533 176.113 26.1333 174.673 24.6933C173.233 23.2533 172.513 21.4389 172.513 19.2501C172.513 17.0805 173.223 15.2757 174.644 13.8357C176.065 12.3765 177.889 11.6469 180.116 11.6469C182.228 11.6469 183.966 12.3765 185.329 13.8357C186.711 15.2949 187.403 17.0997 187.403 19.2501C187.403 19.7301 187.355 20.2389 187.259 20.7765H176.401ZM176.343 17.8965H183.687C183.476 16.9173 183.035 16.1877 182.363 15.7077C181.71 15.2277 180.961 14.9877 180.116 14.9877C179.118 14.9877 178.292 15.2469 177.639 15.7653C176.987 16.2645 176.555 16.9749 176.343 17.8965ZM193.023 20.7765C193.522 22.5813 194.876 23.4837 197.084 23.4837C198.504 23.4837 199.58 23.0037 200.309 22.0437L203.304 23.7717C201.884 25.8261 199.791 26.8533 197.026 26.8533C194.645 26.8533 192.735 26.1333 191.295 24.6933C189.855 23.2533 189.135 21.4389 189.135 19.2501C189.135 17.0805 189.845 15.2757 191.266 13.8357C192.687 12.3765 194.511 11.6469 196.738 11.6469C198.85 11.6469 200.588 12.3765 201.951 13.8357C203.333 15.2949 204.024 17.0997 204.024 19.2501C204.024 19.7301 203.976 20.2389 203.88 20.7765H193.023ZM192.965 17.8965H200.309C200.098 16.9173 199.656 16.1877 198.984 15.7077C198.332 15.2277 197.583 14.9877 196.738 14.9877C195.74 14.9877 194.914 15.2469 194.261 15.7653C193.608 16.2645 193.176 16.9749 192.965 17.8965ZM210.333 14.5269C210.679 13.6053 211.245 12.9141 212.032 12.4533C212.839 11.9925 213.732 11.7621 214.711 11.7621V15.9093C213.578 15.7749 212.56 16.0053 211.658 16.6005C210.775 17.1957 210.333 18.1845 210.333 19.5669V26.4501H206.618V12.0501H210.333V14.5269Z" fill="#764AF1"/>
<rect x="78.3" width="45" height="36" rx="4.5" fill="#764AF1"/>
<path d="M98.6256 11.6469C100.277 11.6469 101.592 12.1845 102.571 13.2597C103.57 14.3349 104.069 15.7749 104.069 17.5797V26.4501H100.354V17.8389C100.354 16.9749 100.142 16.3029 99.72 15.8229C99.2976 15.3429 98.7024 15.1029 97.9344 15.1029C97.0896 15.1029 96.4272 15.3813 95.9472 15.9381C95.4864 16.4949 95.256 17.3013 95.256 18.3573V26.4501H91.5408V17.8389C91.5408 16.9749 91.3296 16.3029 90.9072 15.8229C90.4848 15.3429 89.8896 15.1029 89.1216 15.1029C88.296 15.1029 87.6336 15.3813 87.1344 15.9381C86.6544 16.4949 86.4144 17.3013 86.4144 18.3573V26.4501H82.6992V12.0501H86.4144V13.5765C87.2784 12.2901 88.6128 11.6469 90.4176 11.6469C92.184 11.6469 93.4896 12.3381 94.3344 13.7205C95.2944 12.3381 96.7248 11.6469 98.6256 11.6469ZM116.304 12.0501H120.278L115.036 26.4501C114.288 28.5237 113.289 30.0213 112.041 30.9429C110.812 31.8837 109.276 32.3061 107.433 32.2101V28.7541C108.432 28.7733 109.219 28.5621 109.795 28.1205C110.39 27.6789 110.86 26.9685 111.206 25.9893L105.302 12.0501H109.363L113.107 21.7269L116.304 12.0501Z" fill="#F5F5F5"/>
</svg>
